<mxfile host="app.diagrams.net" modified="2020-07-21T10:45:15.238Z" agent="5.0 (Windows NT 10.0; Win64; x64) AppleWebKit/537.36 (KHTML, like Gecko) Chrome/84.0.4147.89 Safari/537.36" etag="nw1ayuQT8uEG8iBjBAVe" version="13.3.9" type="github" pages="2">
  <diagram id="AzEIsDcafKTdZ0FQHEe2" name="Main">
    <mxGraphModel dx="2062" dy="1122" grid="1" gridSize="10" guides="1" tooltips="1" connect="1" arrows="1" fold="1" page="1" pageScale="1" pageWidth="827" pageHeight="1169" math="0" shadow="0">
      <root>
        <mxCell id="0" />
        <mxCell id="1" parent="0" />
        <mxCell id="J1IrTUOo9NOY3ZXj8_wb-12" value="" style="rounded=0;whiteSpace=wrap;html=1;fontSize=14;fillColor=#f5f5f5;strokeColor=#666666;fontColor=#333333;" parent="1" vertex="1">
          <mxGeometry x="640" y="120" width="160" height="440" as="geometry" />
        </mxCell>
        <mxCell id="J1IrTUOo9NOY3ZXj8_wb-1" value="Diagramme de flux - Survivor Island (v0.1)" style="text;html=1;strokeColor=#6c8ebf;fillColor=#dae8fc;align=center;verticalAlign=middle;whiteSpace=wrap;rounded=0;fontSize=20;" parent="1" vertex="1">
          <mxGeometry x="40" y="20" width="760" height="60" as="geometry" />
        </mxCell>
        <mxCell id="J1IrTUOo9NOY3ZXj8_wb-2" value="Début / Fin" style="ellipse;whiteSpace=wrap;html=1;fontSize=14;" parent="1" vertex="1">
          <mxGeometry x="660" y="161" width="120" height="40" as="geometry" />
        </mxCell>
        <mxCell id="J1IrTUOo9NOY3ZXj8_wb-3" value="Étape / Fonction" style="rounded=0;whiteSpace=wrap;html=1;fontSize=14;" parent="1" vertex="1">
          <mxGeometry x="660" y="221" width="120" height="40" as="geometry" />
        </mxCell>
        <mxCell id="J1IrTUOo9NOY3ZXj8_wb-4" value="Choix" style="rhombus;whiteSpace=wrap;html=1;fontSize=14;" parent="1" vertex="1">
          <mxGeometry x="660" y="340" width="120" height="40" as="geometry" />
        </mxCell>
        <mxCell id="J1IrTUOo9NOY3ZXj8_wb-6" value="Sens du flux" style="endArrow=classic;html=1;fontSize=14;strokeWidth=3;" parent="1" edge="1">
          <mxGeometry width="50" height="50" relative="1" as="geometry">
            <mxPoint x="660" y="420" as="sourcePoint" />
            <mxPoint x="780" y="420" as="targetPoint" />
          </mxGeometry>
        </mxCell>
        <mxCell id="J1IrTUOo9NOY3ZXj8_wb-7" value="&lt;div&gt;Oui / Vrai&lt;/div&gt;" style="endArrow=classic;html=1;fontSize=14;fillColor=#d5e8d4;strokeColor=#82b366;strokeWidth=3;" parent="1" edge="1">
          <mxGeometry width="50" height="50" relative="1" as="geometry">
            <mxPoint x="660" y="460" as="sourcePoint" />
            <mxPoint x="780" y="460" as="targetPoint" />
          </mxGeometry>
        </mxCell>
        <mxCell id="J1IrTUOo9NOY3ZXj8_wb-11" value="Non / Faux" style="endArrow=classic;html=1;fontSize=14;fillColor=#f8cecc;strokeColor=#b85450;strokeWidth=3;" parent="1" edge="1">
          <mxGeometry width="50" height="50" relative="1" as="geometry">
            <mxPoint x="660" y="500" as="sourcePoint" />
            <mxPoint x="780" y="500" as="targetPoint" />
          </mxGeometry>
        </mxCell>
        <mxCell id="J1IrTUOo9NOY3ZXj8_wb-13" value="Légende" style="text;html=1;strokeColor=#000000;fillColor=none;align=center;verticalAlign=middle;whiteSpace=wrap;rounded=0;fontSize=14;fontStyle=1" parent="1" vertex="1">
          <mxGeometry x="640" y="120" width="160" height="20" as="geometry" />
        </mxCell>
        <mxCell id="J1IrTUOo9NOY3ZXj8_wb-15" value="Lancement du programme" style="ellipse;whiteSpace=wrap;html=1;fontSize=14;" parent="1" vertex="1">
          <mxGeometry x="160" y="120" width="160" height="80" as="geometry" />
        </mxCell>
        <mxCell id="J1IrTUOo9NOY3ZXj8_wb-19" value="" style="endArrow=classic;html=1;fontSize=14;strokeWidth=2;exitX=0.5;exitY=1;exitDx=0;exitDy=0;entryX=0.5;entryY=0;entryDx=0;entryDy=0;" parent="1" source="J1IrTUOo9NOY3ZXj8_wb-15" edge="1">
          <mxGeometry width="50" height="50" relative="1" as="geometry">
            <mxPoint x="390" y="180.5" as="sourcePoint" />
            <mxPoint x="240" y="241" as="targetPoint" />
          </mxGeometry>
        </mxCell>
        <mxCell id="i5pnl8YPn5c8DjLy_5TZ-1" value="(Sous)-processus" style="shape=process;whiteSpace=wrap;html=1;backgroundOutline=1;fontSize=14;" parent="1" vertex="1">
          <mxGeometry x="660" y="280" width="120" height="40" as="geometry" />
        </mxCell>
        <mxCell id="OEOKQI-eKIe9LrGtlkYa-2" value="Afficher le menu et proposer 4 options" style="rhombus;whiteSpace=wrap;html=1;" parent="1" vertex="1">
          <mxGeometry x="120" y="240" width="240" height="80" as="geometry" />
        </mxCell>
        <mxCell id="OEOKQI-eKIe9LrGtlkYa-6" value="" style="endArrow=classic;html=1;exitX=0.5;exitY=1;exitDx=0;exitDy=0;entryX=0.5;entryY=0;entryDx=0;entryDy=0;" parent="1" source="OEOKQI-eKIe9LrGtlkYa-2" target="5nfX74ZdlAHGsx7aPMXG-9" edge="1">
          <mxGeometry width="50" height="50" relative="1" as="geometry">
            <mxPoint x="390" y="380" as="sourcePoint" />
            <mxPoint x="240" y="360" as="targetPoint" />
          </mxGeometry>
        </mxCell>
        <mxCell id="OEOKQI-eKIe9LrGtlkYa-7" value="" style="endArrow=classic;html=1;entryX=0.5;entryY=0;entryDx=0;entryDy=0;exitX=0;exitY=1;exitDx=0;exitDy=0;" parent="1" source="OEOKQI-eKIe9LrGtlkYa-2" target="5nfX74ZdlAHGsx7aPMXG-11" edge="1">
          <mxGeometry width="50" height="50" relative="1" as="geometry">
            <mxPoint x="390" y="380" as="sourcePoint" />
            <mxPoint x="100" y="360" as="targetPoint" />
          </mxGeometry>
        </mxCell>
        <mxCell id="OEOKQI-eKIe9LrGtlkYa-8" value="" style="endArrow=classic;startArrow=classic;html=1;entryX=1;entryY=1;entryDx=0;entryDy=0;exitX=0.5;exitY=0;exitDx=0;exitDy=0;" parent="1" source="5nfX74ZdlAHGsx7aPMXG-8" target="OEOKQI-eKIe9LrGtlkYa-2" edge="1">
          <mxGeometry width="50" height="50" relative="1" as="geometry">
            <mxPoint x="380" y="360" as="sourcePoint" />
            <mxPoint x="440" y="330" as="targetPoint" />
          </mxGeometry>
        </mxCell>
        <mxCell id="OEOKQI-eKIe9LrGtlkYa-9" value="Charger de nouvelle var" style="shape=process;whiteSpace=wrap;html=1;backgroundOutline=1;" parent="1" vertex="1">
          <mxGeometry x="40" y="480" width="120" height="60" as="geometry" />
        </mxCell>
        <mxCell id="OEOKQI-eKIe9LrGtlkYa-10" value="Charger des vars sauvegarder" style="shape=process;whiteSpace=wrap;html=1;backgroundOutline=1;" parent="1" vertex="1">
          <mxGeometry x="180" y="480" width="120" height="60" as="geometry" />
        </mxCell>
        <mxCell id="OEOKQI-eKIe9LrGtlkYa-11" value="" style="endArrow=classic;html=1;exitX=0.5;exitY=1;exitDx=0;exitDy=0;entryX=0.5;entryY=0;entryDx=0;entryDy=0;" parent="1" source="5nfX74ZdlAHGsx7aPMXG-9" target="OEOKQI-eKIe9LrGtlkYa-10" edge="1">
          <mxGeometry width="50" height="50" relative="1" as="geometry">
            <mxPoint x="240" y="420" as="sourcePoint" />
            <mxPoint x="440" y="530" as="targetPoint" />
          </mxGeometry>
        </mxCell>
        <mxCell id="OEOKQI-eKIe9LrGtlkYa-12" value="" style="endArrow=classic;html=1;exitX=0.5;exitY=1;exitDx=0;exitDy=0;entryX=0.5;entryY=0;entryDx=0;entryDy=0;" parent="1" source="5nfX74ZdlAHGsx7aPMXG-11" target="OEOKQI-eKIe9LrGtlkYa-9" edge="1">
          <mxGeometry width="50" height="50" relative="1" as="geometry">
            <mxPoint x="100" y="420" as="sourcePoint" />
            <mxPoint x="250" y="490" as="targetPoint" />
          </mxGeometry>
        </mxCell>
        <mxCell id="OEOKQI-eKIe9LrGtlkYa-13" value="Créer la carte" style="shape=process;whiteSpace=wrap;html=1;backgroundOutline=1;" parent="1" vertex="1">
          <mxGeometry x="110" y="600" width="120" height="60" as="geometry" />
        </mxCell>
        <mxCell id="OEOKQI-eKIe9LrGtlkYa-15" value="" style="endArrow=classic;html=1;entryX=0.5;entryY=0;entryDx=0;entryDy=0;exitX=0.5;exitY=1;exitDx=0;exitDy=0;" parent="1" source="OEOKQI-eKIe9LrGtlkYa-10" target="OEOKQI-eKIe9LrGtlkYa-13" edge="1">
          <mxGeometry width="50" height="50" relative="1" as="geometry">
            <mxPoint x="390" y="680" as="sourcePoint" />
            <mxPoint x="440" y="630" as="targetPoint" />
          </mxGeometry>
        </mxCell>
        <mxCell id="OEOKQI-eKIe9LrGtlkYa-16" value="" style="endArrow=classic;html=1;entryX=0.5;entryY=0;entryDx=0;entryDy=0;exitX=0.5;exitY=1;exitDx=0;exitDy=0;" parent="1" source="OEOKQI-eKIe9LrGtlkYa-9" target="OEOKQI-eKIe9LrGtlkYa-13" edge="1">
          <mxGeometry width="50" height="50" relative="1" as="geometry">
            <mxPoint x="250" y="550" as="sourcePoint" />
            <mxPoint x="180" y="610" as="targetPoint" />
          </mxGeometry>
        </mxCell>
        <mxCell id="5nfX74ZdlAHGsx7aPMXG-21" style="edgeStyle=orthogonalEdgeStyle;rounded=0;orthogonalLoop=1;jettySize=auto;html=1;strokeColor=#33FF33;" parent="1" source="OEOKQI-eKIe9LrGtlkYa-17" target="5nfX74ZdlAHGsx7aPMXG-20" edge="1">
          <mxGeometry relative="1" as="geometry" />
        </mxCell>
        <mxCell id="5nfX74ZdlAHGsx7aPMXG-27" style="edgeStyle=orthogonalEdgeStyle;rounded=0;orthogonalLoop=1;jettySize=auto;html=1;entryX=0.5;entryY=1;entryDx=0;entryDy=0;strokeColor=#FF0000;" parent="1" source="OEOKQI-eKIe9LrGtlkYa-17" target="5nfX74ZdlAHGsx7aPMXG-26" edge="1">
          <mxGeometry relative="1" as="geometry" />
        </mxCell>
        <mxCell id="OEOKQI-eKIe9LrGtlkYa-17" value="tant que le joueur peux jouer" style="shape=process;whiteSpace=wrap;html=1;backgroundOutline=1;" parent="1" vertex="1">
          <mxGeometry x="320" y="600" width="120" height="60" as="geometry" />
        </mxCell>
        <mxCell id="OEOKQI-eKIe9LrGtlkYa-18" value="" style="endArrow=classic;html=1;exitX=1;exitY=0.5;exitDx=0;exitDy=0;entryX=0;entryY=0.5;entryDx=0;entryDy=0;" parent="1" source="OEOKQI-eKIe9LrGtlkYa-13" target="OEOKQI-eKIe9LrGtlkYa-17" edge="1">
          <mxGeometry width="50" height="50" relative="1" as="geometry">
            <mxPoint x="390" y="780" as="sourcePoint" />
            <mxPoint x="440" y="730" as="targetPoint" />
          </mxGeometry>
        </mxCell>
        <mxCell id="5nfX74ZdlAHGsx7aPMXG-4" style="edgeStyle=orthogonalEdgeStyle;rounded=0;orthogonalLoop=1;jettySize=auto;html=1;entryX=1;entryY=0.5;entryDx=0;entryDy=0;" parent="1" source="OEOKQI-eKIe9LrGtlkYa-20" target="5nfX74ZdlAHGsx7aPMXG-3" edge="1">
          <mxGeometry relative="1" as="geometry" />
        </mxCell>
        <mxCell id="5nfX74ZdlAHGsx7aPMXG-42" style="edgeStyle=orthogonalEdgeStyle;rounded=0;orthogonalLoop=1;jettySize=auto;html=1;entryX=0;entryY=0.5;entryDx=0;entryDy=0;strokeColor=#000000;" parent="1" source="OEOKQI-eKIe9LrGtlkYa-20" target="5nfX74ZdlAHGsx7aPMXG-39" edge="1">
          <mxGeometry relative="1" as="geometry">
            <Array as="points">
              <mxPoint x="620" y="780" />
              <mxPoint x="620" y="990" />
            </Array>
          </mxGeometry>
        </mxCell>
        <mxCell id="OEOKQI-eKIe9LrGtlkYa-20" value="Je demande ce que&lt;br&gt;&amp;nbsp;le joueur veut faire" style="rhombus;whiteSpace=wrap;html=1;" parent="1" vertex="1">
          <mxGeometry x="320" y="720" width="160" height="120" as="geometry" />
        </mxCell>
        <mxCell id="5nfX74ZdlAHGsx7aPMXG-6" style="edgeStyle=orthogonalEdgeStyle;rounded=0;orthogonalLoop=1;jettySize=auto;html=1;" parent="1" source="5nfX74ZdlAHGsx7aPMXG-3" target="5nfX74ZdlAHGsx7aPMXG-5" edge="1">
          <mxGeometry relative="1" as="geometry" />
        </mxCell>
        <mxCell id="5nfX74ZdlAHGsx7aPMXG-3" value="si le joueur veut bouger" style="rounded=0;whiteSpace=wrap;html=1;" parent="1" vertex="1">
          <mxGeometry x="200" y="760" width="80" height="60" as="geometry" />
        </mxCell>
        <mxCell id="5nfX74ZdlAHGsx7aPMXG-12" style="edgeStyle=orthogonalEdgeStyle;rounded=0;orthogonalLoop=1;jettySize=auto;html=1;" parent="1" source="5nfX74ZdlAHGsx7aPMXG-5" target="5nfX74ZdlAHGsx7aPMXG-7" edge="1">
          <mxGeometry relative="1" as="geometry" />
        </mxCell>
        <mxCell id="5nfX74ZdlAHGsx7aPMXG-5" value="je demande ou il veut bouger" style="whiteSpace=wrap;html=1;aspect=fixed;" parent="1" vertex="1">
          <mxGeometry x="80" y="760" width="80" height="80" as="geometry" />
        </mxCell>
        <mxCell id="5nfX74ZdlAHGsx7aPMXG-13" style="edgeStyle=orthogonalEdgeStyle;rounded=0;orthogonalLoop=1;jettySize=auto;html=1;entryX=0;entryY=0.5;entryDx=0;entryDy=0;fillColor=#f8cecc;strokeColor=#FF0000;" parent="1" source="5nfX74ZdlAHGsx7aPMXG-7" target="5nfX74ZdlAHGsx7aPMXG-5" edge="1">
          <mxGeometry relative="1" as="geometry">
            <Array as="points">
              <mxPoint x="60" y="910" />
              <mxPoint x="60" y="800" />
            </Array>
          </mxGeometry>
        </mxCell>
        <mxCell id="5nfX74ZdlAHGsx7aPMXG-16" style="edgeStyle=orthogonalEdgeStyle;rounded=0;orthogonalLoop=1;jettySize=auto;html=1;strokeColor=#33FF33;" parent="1" source="5nfX74ZdlAHGsx7aPMXG-7" target="5nfX74ZdlAHGsx7aPMXG-14" edge="1">
          <mxGeometry relative="1" as="geometry" />
        </mxCell>
        <mxCell id="5nfX74ZdlAHGsx7aPMXG-7" value="Je vérifie que la direction est correct et accessible&amp;nbsp;" style="shape=process;whiteSpace=wrap;html=1;backgroundOutline=1;" parent="1" vertex="1">
          <mxGeometry x="80" y="880" width="120" height="60" as="geometry" />
        </mxCell>
        <mxCell id="5nfX74ZdlAHGsx7aPMXG-8" value="&lt;span&gt;Load Score&lt;/span&gt;" style="rounded=0;whiteSpace=wrap;html=1;" parent="1" vertex="1">
          <mxGeometry x="320" y="360" width="120" height="60" as="geometry" />
        </mxCell>
        <mxCell id="5nfX74ZdlAHGsx7aPMXG-9" value="Load Game" style="rounded=0;whiteSpace=wrap;html=1;" parent="1" vertex="1">
          <mxGeometry x="180" y="360" width="120" height="60" as="geometry" />
        </mxCell>
        <mxCell id="5nfX74ZdlAHGsx7aPMXG-11" value="New Game" style="rounded=0;whiteSpace=wrap;html=1;" parent="1" vertex="1">
          <mxGeometry x="40" y="360" width="120" height="60" as="geometry" />
        </mxCell>
        <mxCell id="5nfX74ZdlAHGsx7aPMXG-17" style="edgeStyle=orthogonalEdgeStyle;rounded=0;orthogonalLoop=1;jettySize=auto;html=1;entryX=0;entryY=0.5;entryDx=0;entryDy=0;" parent="1" source="5nfX74ZdlAHGsx7aPMXG-14" target="5nfX74ZdlAHGsx7aPMXG-15" edge="1">
          <mxGeometry relative="1" as="geometry" />
        </mxCell>
        <mxCell id="5nfX74ZdlAHGsx7aPMXG-14" value="je change les coordonnée" style="shape=process;whiteSpace=wrap;html=1;backgroundOutline=1;" parent="1" vertex="1">
          <mxGeometry x="80" y="960" width="120" height="60" as="geometry" />
        </mxCell>
        <mxCell id="5nfX74ZdlAHGsx7aPMXG-18" style="edgeStyle=orthogonalEdgeStyle;rounded=0;orthogonalLoop=1;jettySize=auto;html=1;strokeColor=#000000;" parent="1" source="5nfX74ZdlAHGsx7aPMXG-15" edge="1">
          <mxGeometry relative="1" as="geometry">
            <mxPoint x="380" y="660" as="targetPoint" />
            <Array as="points">
              <mxPoint x="400" y="870" />
              <mxPoint x="310" y="870" />
              <mxPoint x="310" y="680" />
              <mxPoint x="380" y="680" />
              <mxPoint x="380" y="660" />
            </Array>
          </mxGeometry>
        </mxCell>
        <mxCell id="5nfX74ZdlAHGsx7aPMXG-15" value="Créer la carte&lt;br&gt;et afficher les stats" style="rounded=0;whiteSpace=wrap;html=1;" parent="1" vertex="1">
          <mxGeometry x="340" y="880" width="120" height="60" as="geometry" />
        </mxCell>
        <mxCell id="5nfX74ZdlAHGsx7aPMXG-22" style="edgeStyle=orthogonalEdgeStyle;rounded=0;orthogonalLoop=1;jettySize=auto;html=1;entryX=0.5;entryY=0;entryDx=0;entryDy=0;strokeColor=#FF0000;" parent="1" source="5nfX74ZdlAHGsx7aPMXG-20" target="OEOKQI-eKIe9LrGtlkYa-20" edge="1">
          <mxGeometry relative="1" as="geometry" />
        </mxCell>
        <mxCell id="5nfX74ZdlAHGsx7aPMXG-24" style="edgeStyle=orthogonalEdgeStyle;rounded=0;orthogonalLoop=1;jettySize=auto;html=1;strokeColor=#33FF33;" parent="1" source="5nfX74ZdlAHGsx7aPMXG-20" target="5nfX74ZdlAHGsx7aPMXG-23" edge="1">
          <mxGeometry relative="1" as="geometry" />
        </mxCell>
        <mxCell id="5nfX74ZdlAHGsx7aPMXG-20" value="Je verifie si le joueur est a un event" style="rounded=0;whiteSpace=wrap;html=1;" parent="1" vertex="1">
          <mxGeometry x="480" y="600" width="120" height="60" as="geometry" />
        </mxCell>
        <mxCell id="5nfX74ZdlAHGsx7aPMXG-30" style="edgeStyle=orthogonalEdgeStyle;rounded=0;orthogonalLoop=1;jettySize=auto;html=1;entryX=1;entryY=0;entryDx=0;entryDy=0;strokeColor=#000000;" parent="1" source="5nfX74ZdlAHGsx7aPMXG-23" target="OEOKQI-eKIe9LrGtlkYa-17" edge="1">
          <mxGeometry relative="1" as="geometry">
            <Array as="points">
              <mxPoint x="700" y="580" />
              <mxPoint x="440" y="580" />
            </Array>
          </mxGeometry>
        </mxCell>
        <mxCell id="5nfX74ZdlAHGsx7aPMXG-32" style="edgeStyle=orthogonalEdgeStyle;rounded=0;orthogonalLoop=1;jettySize=auto;html=1;entryX=0.5;entryY=0;entryDx=0;entryDy=0;strokeColor=#000000;" parent="1" source="5nfX74ZdlAHGsx7aPMXG-23" target="5nfX74ZdlAHGsx7aPMXG-31" edge="1">
          <mxGeometry relative="1" as="geometry" />
        </mxCell>
        <mxCell id="5nfX74ZdlAHGsx7aPMXG-23" value="Je lance l&#39;event&lt;br&gt;(jeu, porte, objet trouveé)" style="shape=process;whiteSpace=wrap;html=1;backgroundOutline=1;" parent="1" vertex="1">
          <mxGeometry x="640" y="600" width="120" height="60" as="geometry" />
        </mxCell>
        <mxCell id="5nfX74ZdlAHGsx7aPMXG-29" style="edgeStyle=orthogonalEdgeStyle;rounded=0;orthogonalLoop=1;jettySize=auto;html=1;" parent="1" source="5nfX74ZdlAHGsx7aPMXG-26" target="5nfX74ZdlAHGsx7aPMXG-28" edge="1">
          <mxGeometry relative="1" as="geometry" />
        </mxCell>
        <mxCell id="5nfX74ZdlAHGsx7aPMXG-26" value="Le joueur a perdu" style="rounded=0;whiteSpace=wrap;html=1;" parent="1" vertex="1">
          <mxGeometry x="360" y="500" width="120" height="60" as="geometry" />
        </mxCell>
        <mxCell id="5nfX74ZdlAHGsx7aPMXG-28" value="Fin du jeu" style="ellipse;whiteSpace=wrap;html=1;" parent="1" vertex="1">
          <mxGeometry x="500" y="500" width="120" height="60" as="geometry" />
        </mxCell>
        <mxCell id="5nfX74ZdlAHGsx7aPMXG-33" style="edgeStyle=orthogonalEdgeStyle;rounded=0;orthogonalLoop=1;jettySize=auto;html=1;strokeColor=#000000;entryX=0.5;entryY=0;entryDx=0;entryDy=0;" parent="1" source="5nfX74ZdlAHGsx7aPMXG-31" target="5nfX74ZdlAHGsx7aPMXG-36" edge="1">
          <mxGeometry relative="1" as="geometry">
            <mxPoint x="700" y="800" as="targetPoint" />
          </mxGeometry>
        </mxCell>
        <mxCell id="5nfX74ZdlAHGsx7aPMXG-31" value="Si l&#39;event est la porte et qu&#39;on a les 3 clefs" style="rounded=0;whiteSpace=wrap;html=1;" parent="1" vertex="1">
          <mxGeometry x="640" y="700" width="120" height="60" as="geometry" />
        </mxCell>
        <mxCell id="5nfX74ZdlAHGsx7aPMXG-36" value="Je sauve le score" style="shape=process;whiteSpace=wrap;html=1;backgroundOutline=1;" parent="1" vertex="1">
          <mxGeometry x="640" y="800" width="120" height="60" as="geometry" />
        </mxCell>
        <mxCell id="5nfX74ZdlAHGsx7aPMXG-37" value="Fin du jeu" style="ellipse;whiteSpace=wrap;html=1;" parent="1" vertex="1">
          <mxGeometry x="640" y="880" width="120" height="60" as="geometry" />
        </mxCell>
        <mxCell id="5nfX74ZdlAHGsx7aPMXG-38" value="" style="endArrow=classic;html=1;strokeColor=#000000;exitX=0.5;exitY=1;exitDx=0;exitDy=0;entryX=0.5;entryY=0;entryDx=0;entryDy=0;" parent="1" source="5nfX74ZdlAHGsx7aPMXG-36" target="5nfX74ZdlAHGsx7aPMXG-37" edge="1">
          <mxGeometry width="50" height="50" relative="1" as="geometry">
            <mxPoint x="440" y="840" as="sourcePoint" />
            <mxPoint x="490" y="790" as="targetPoint" />
          </mxGeometry>
        </mxCell>
        <mxCell id="5nfX74ZdlAHGsx7aPMXG-39" value="Si le joueur veut sauvegarder" style="rounded=0;whiteSpace=wrap;html=1;" parent="1" vertex="1">
          <mxGeometry x="640" y="960" width="120" height="60" as="geometry" />
        </mxCell>
        <mxCell id="5nfX74ZdlAHGsx7aPMXG-44" style="edgeStyle=orthogonalEdgeStyle;rounded=0;orthogonalLoop=1;jettySize=auto;html=1;entryX=1;entryY=0.25;entryDx=0;entryDy=0;strokeColor=#000000;" parent="1" source="5nfX74ZdlAHGsx7aPMXG-40" target="5nfX74ZdlAHGsx7aPMXG-15" edge="1">
          <mxGeometry relative="1" as="geometry">
            <Array as="points">
              <mxPoint x="610" y="1070" />
              <mxPoint x="610" y="895" />
            </Array>
          </mxGeometry>
        </mxCell>
        <mxCell id="5nfX74ZdlAHGsx7aPMXG-40" value="Je sauvegarde" style="shape=process;whiteSpace=wrap;html=1;backgroundOutline=1;" parent="1" vertex="1">
          <mxGeometry x="640" y="1040" width="120" height="60" as="geometry" />
        </mxCell>
        <mxCell id="5nfX74ZdlAHGsx7aPMXG-41" value="" style="endArrow=classic;html=1;strokeColor=#000000;exitX=0.5;exitY=1;exitDx=0;exitDy=0;entryX=0.5;entryY=0;entryDx=0;entryDy=0;" parent="1" source="5nfX74ZdlAHGsx7aPMXG-39" target="5nfX74ZdlAHGsx7aPMXG-40" edge="1">
          <mxGeometry width="50" height="50" relative="1" as="geometry">
            <mxPoint x="440" y="1110" as="sourcePoint" />
            <mxPoint x="490" y="1060" as="targetPoint" />
          </mxGeometry>
        </mxCell>
        <mxCell id="5nfX74ZdlAHGsx7aPMXG-48" style="edgeStyle=orthogonalEdgeStyle;rounded=0;orthogonalLoop=1;jettySize=auto;html=1;entryX=0.5;entryY=0;entryDx=0;entryDy=0;strokeColor=#000000;" parent="1" source="5nfX74ZdlAHGsx7aPMXG-45" target="5nfX74ZdlAHGsx7aPMXG-47" edge="1">
          <mxGeometry relative="1" as="geometry" />
        </mxCell>
        <mxCell id="5nfX74ZdlAHGsx7aPMXG-45" value="Si le joueur veux l&#39;inventaire" style="rounded=0;whiteSpace=wrap;html=1;" parent="1" vertex="1">
          <mxGeometry x="480" y="800" width="120" height="60" as="geometry" />
        </mxCell>
        <mxCell id="5nfX74ZdlAHGsx7aPMXG-46" value="" style="endArrow=classic;html=1;strokeColor=#000000;exitX=1;exitY=1;exitDx=0;exitDy=0;entryX=0;entryY=0.5;entryDx=0;entryDy=0;" parent="1" source="OEOKQI-eKIe9LrGtlkYa-20" target="5nfX74ZdlAHGsx7aPMXG-45" edge="1">
          <mxGeometry width="50" height="50" relative="1" as="geometry">
            <mxPoint x="440" y="920" as="sourcePoint" />
            <mxPoint x="490" y="870" as="targetPoint" />
          </mxGeometry>
        </mxCell>
        <mxCell id="5nfX74ZdlAHGsx7aPMXG-49" style="edgeStyle=orthogonalEdgeStyle;rounded=0;orthogonalLoop=1;jettySize=auto;html=1;entryX=0.5;entryY=1;entryDx=0;entryDy=0;strokeColor=#000000;" parent="1" source="5nfX74ZdlAHGsx7aPMXG-47" target="5nfX74ZdlAHGsx7aPMXG-15" edge="1">
          <mxGeometry relative="1" as="geometry" />
        </mxCell>
        <mxCell id="5nfX74ZdlAHGsx7aPMXG-47" value="J&#39;utilise ou je dépose sur la carte l&#39;objet choisi" style="shape=process;whiteSpace=wrap;html=1;backgroundOutline=1;" parent="1" vertex="1">
          <mxGeometry x="480" y="920" width="120" height="60" as="geometry" />
        </mxCell>
        <mxCell id="SASHZpyB4dPOQnxKUacI-1" value="" style="endArrow=classic;startArrow=classic;html=1;entryX=1;entryY=0.5;entryDx=0;entryDy=0;exitX=0;exitY=0.5;exitDx=0;exitDy=0;" edge="1" parent="1" source="SASHZpyB4dPOQnxKUacI-2" target="OEOKQI-eKIe9LrGtlkYa-2">
          <mxGeometry width="50" height="50" relative="1" as="geometry">
            <mxPoint x="510" y="241" as="sourcePoint" />
            <mxPoint x="430" y="181" as="targetPoint" />
          </mxGeometry>
        </mxCell>
        <mxCell id="SASHZpyB4dPOQnxKUacI-2" value="&lt;span&gt;Load Historic&lt;/span&gt;" style="rounded=0;whiteSpace=wrap;html=1;" vertex="1" parent="1">
          <mxGeometry x="450" y="250" width="120" height="60" as="geometry" />
        </mxCell>
      </root>
    </mxGraphModel>
  </diagram>
  <diagram name="DataInitialization" id="Hzd9iCR9h2EO_1jAb71H">
    
    <mxGraphModel dx="1038" dy="607" grid="1" gridSize="10" guides="1" tooltips="1" connect="1" arrows="1" fold="1" page="1" pageScale="1" pageWidth="827" pageHeight="1169" math="0" shadow="0">
      
      <root>
        
        <mxCell id="fu7kZ0SEieJU177dOTh--0" />
        
        <mxCell id="fu7kZ0SEieJU177dOTh--1" parent="fu7kZ0SEieJU177dOTh--0" />
        
        <mxCell id="fu7kZ0SEieJU177dOTh--2" value="" style="rounded=0;whiteSpace=wrap;html=1;fontSize=14;fillColor=#f5f5f5;strokeColor=#666666;fontColor=#333333;" vertex="1" parent="fu7kZ0SEieJU177dOTh--1">
          
          <mxGeometry x="640" y="120" width="160" height="440" as="geometry" />
          
        </mxCell>
        
        <mxCell id="fu7kZ0SEieJU177dOTh--3" value="Diagramme de flux - Le petit train robot&lt;br&gt;Initialisation des données" style="text;html=1;strokeColor=#6c8ebf;fillColor=#dae8fc;align=center;verticalAlign=middle;whiteSpace=wrap;rounded=0;fontSize=20;" vertex="1" parent="fu7kZ0SEieJU177dOTh--1">
          
          <mxGeometry x="40" y="20" width="760" height="60" as="geometry" />
          
        </mxCell>
        
        <mxCell id="fu7kZ0SEieJU177dOTh--4" value="Début / Fin" style="ellipse;whiteSpace=wrap;html=1;fontSize=14;" vertex="1" parent="fu7kZ0SEieJU177dOTh--1">
          
          <mxGeometry x="660" y="161" width="120" height="40" as="geometry" />
          
        </mxCell>
        
        <mxCell id="fu7kZ0SEieJU177dOTh--5" value="Étape / Fonction" style="rounded=0;whiteSpace=wrap;html=1;fontSize=14;" vertex="1" parent="fu7kZ0SEieJU177dOTh--1">
          
          <mxGeometry x="660" y="221" width="120" height="40" as="geometry" />
          
        </mxCell>
        
        <mxCell id="fu7kZ0SEieJU177dOTh--6" value="Choix" style="rhombus;whiteSpace=wrap;html=1;fontSize=14;" vertex="1" parent="fu7kZ0SEieJU177dOTh--1">
          
          <mxGeometry x="660" y="340" width="120" height="40" as="geometry" />
          
        </mxCell>
        
        <mxCell id="fu7kZ0SEieJU177dOTh--7" value="Sens du flux" style="endArrow=classic;html=1;fontSize=14;strokeWidth=3;" edge="1" parent="fu7kZ0SEieJU177dOTh--1">
          
          <mxGeometry width="50" height="50" relative="1" as="geometry">
            
            <mxPoint x="660" y="420" as="sourcePoint" />
            
            <mxPoint x="780" y="420" as="targetPoint" />
            
          </mxGeometry>
          
        </mxCell>
        
        <mxCell id="fu7kZ0SEieJU177dOTh--8" value="&lt;div&gt;Oui / Vrai&lt;/div&gt;" style="endArrow=classic;html=1;fontSize=14;fillColor=#d5e8d4;strokeColor=#82b366;strokeWidth=3;" edge="1" parent="fu7kZ0SEieJU177dOTh--1">
          
          <mxGeometry width="50" height="50" relative="1" as="geometry">
            
            <mxPoint x="660" y="460" as="sourcePoint" />
            
            <mxPoint x="780" y="460" as="targetPoint" />
            
          </mxGeometry>
          
        </mxCell>
        
        <mxCell id="fu7kZ0SEieJU177dOTh--9" value="Non / Faux" style="endArrow=classic;html=1;fontSize=14;fillColor=#f8cecc;strokeColor=#b85450;strokeWidth=3;" edge="1" parent="fu7kZ0SEieJU177dOTh--1">
          
          <mxGeometry width="50" height="50" relative="1" as="geometry">
            
            <mxPoint x="660" y="500" as="sourcePoint" />
            
            <mxPoint x="780" y="500" as="targetPoint" />
            
          </mxGeometry>
          
        </mxCell>
        
        <mxCell id="fu7kZ0SEieJU177dOTh--10" value="Légende" style="text;html=1;strokeColor=#000000;fillColor=none;align=center;verticalAlign=middle;whiteSpace=wrap;rounded=0;fontSize=14;fontStyle=1" vertex="1" parent="fu7kZ0SEieJU177dOTh--1">
          
          <mxGeometry x="640" y="120" width="160" height="20" as="geometry" />
          
        </mxCell>
        
        <mxCell id="fu7kZ0SEieJU177dOTh--11" value="Entrée dans&lt;br&gt;le processus" style="ellipse;whiteSpace=wrap;html=1;fontSize=14;" vertex="1" parent="fu7kZ0SEieJU177dOTh--1">
          
          <mxGeometry x="40" y="120" width="160" height="80" as="geometry" />
          
        </mxCell>
        
        <mxCell id="fu7kZ0SEieJU177dOTh--12" value="Demander la longueur&lt;br&gt;de la voie ferrée&lt;br&gt;&lt;b&gt;RailroadLength&lt;/b&gt;" style="rounded=0;whiteSpace=wrap;html=1;fontSize=14;" vertex="1" parent="fu7kZ0SEieJU177dOTh--1">
          
          <mxGeometry x="40" y="241" width="160" height="79" as="geometry" />
          
        </mxCell>
        
        <mxCell id="fu7kZ0SEieJU177dOTh--13" style="edgeStyle=orthogonalEdgeStyle;rounded=0;orthogonalLoop=1;jettySize=auto;html=1;exitX=0.5;exitY=1;exitDx=0;exitDy=0;entryX=0.5;entryY=0;entryDx=0;entryDy=0;strokeWidth=2;fontSize=14;" edge="1" parent="fu7kZ0SEieJU177dOTh--1" target="fu7kZ0SEieJU177dOTh--31" source="fu7kZ0SEieJU177dOTh--30">
          
          <mxGeometry relative="1" as="geometry">
            
            <mxPoint x="120" y="559" as="sourcePoint" />
            
            <mxPoint x="120" y="600" as="targetPoint" />
            
          </mxGeometry>
          
        </mxCell>
        
        <mxCell id="fu7kZ0SEieJU177dOTh--14" value="" style="endArrow=classic;html=1;fontSize=14;strokeWidth=2;exitX=0.5;exitY=1;exitDx=0;exitDy=0;entryX=0.5;entryY=0;entryDx=0;entryDy=0;" edge="1" parent="fu7kZ0SEieJU177dOTh--1" source="fu7kZ0SEieJU177dOTh--11" target="fu7kZ0SEieJU177dOTh--12">
          
          <mxGeometry width="50" height="50" relative="1" as="geometry">
            
            <mxPoint x="270" y="180.5" as="sourcePoint" />
            
            <mxPoint x="390" y="180.5" as="targetPoint" />
            
          </mxGeometry>
          
        </mxCell>
        
        <mxCell id="fu7kZ0SEieJU177dOTh--15" value="" style="endArrow=classic;html=1;fontSize=14;strokeWidth=2;exitX=0.5;exitY=1;exitDx=0;exitDy=0;entryX=0.5;entryY=0;entryDx=0;entryDy=0;" edge="1" parent="fu7kZ0SEieJU177dOTh--1" source="fu7kZ0SEieJU177dOTh--12" target="fu7kZ0SEieJU177dOTh--29">
          
          <mxGeometry width="50" height="50" relative="1" as="geometry">
            
            <mxPoint x="119.5" y="321" as="sourcePoint" />
            
            <mxPoint x="120" y="360" as="targetPoint" />
            
          </mxGeometry>
          
        </mxCell>
        
        <mxCell id="fu7kZ0SEieJU177dOTh--16" value="" style="endArrow=classic;html=1;strokeWidth=2;fontSize=14;exitX=0.5;exitY=1;exitDx=0;exitDy=0;entryX=0.5;entryY=0;entryDx=0;entryDy=0;" edge="1" parent="fu7kZ0SEieJU177dOTh--1" target="fu7kZ0SEieJU177dOTh--30">
          
          <mxGeometry width="50" height="50" relative="1" as="geometry">
            
            <mxPoint x="120" y="440" as="sourcePoint" />
            
            <mxPoint x="120" y="480" as="targetPoint" />
            
          </mxGeometry>
          
        </mxCell>
        
        <mxCell id="fu7kZ0SEieJU177dOTh--17" style="edgeStyle=orthogonalEdgeStyle;rounded=0;orthogonalLoop=1;jettySize=auto;html=1;exitX=0.5;exitY=1;exitDx=0;exitDy=0;entryX=0.5;entryY=0;entryDx=0;entryDy=0;strokeWidth=2;fontSize=14;" edge="1" parent="fu7kZ0SEieJU177dOTh--1" target="fu7kZ0SEieJU177dOTh--33">
          
          <mxGeometry relative="1" as="geometry">
            
            <mxPoint x="120" y="680" as="sourcePoint" />
            
            <mxPoint x="120" y="720" as="targetPoint" />
            
          </mxGeometry>
          
        </mxCell>
        
        <mxCell id="fu7kZ0SEieJU177dOTh--20" style="edgeStyle=orthogonalEdgeStyle;rounded=0;orthogonalLoop=1;jettySize=auto;html=1;exitX=0.5;exitY=1;exitDx=0;exitDy=0;entryX=0.5;entryY=0;entryDx=0;entryDy=0;strokeWidth=2;fontSize=14;" edge="1" parent="fu7kZ0SEieJU177dOTh--1" source="fu7kZ0SEieJU177dOTh--37" target="fu7kZ0SEieJU177dOTh--23">
          
          <mxGeometry relative="1" as="geometry">
            
            <mxPoint x="120" y="959" as="sourcePoint" />
            
          </mxGeometry>
          
        </mxCell>
        
        <mxCell id="fu7kZ0SEieJU177dOTh--23" value="Fin du processus&lt;br&gt;(retour)" style="ellipse;whiteSpace=wrap;html=1;fontSize=14;" vertex="1" parent="fu7kZ0SEieJU177dOTh--1">
          
          <mxGeometry x="40" y="1080" width="160" height="80" as="geometry" />
          
        </mxCell>
        
        <mxCell id="fu7kZ0SEieJU177dOTh--24" value="(Sous)-processus" style="shape=process;whiteSpace=wrap;html=1;backgroundOutline=1;fontSize=14;" vertex="1" parent="fu7kZ0SEieJU177dOTh--1">
          
          <mxGeometry x="660" y="280" width="120" height="40" as="geometry" />
          
        </mxCell>
        
        <mxCell id="fu7kZ0SEieJU177dOTh--29" value="Placer le garage&lt;br&gt;et l&#39;entrepôt sur&lt;br&gt;la voie ferrée" style="rounded=0;whiteSpace=wrap;html=1;fontSize=14;" vertex="1" parent="fu7kZ0SEieJU177dOTh--1">
          
          <mxGeometry x="40" y="360" width="160" height="79" as="geometry" />
          
        </mxCell>
        
        <mxCell id="fu7kZ0SEieJU177dOTh--30" value="Demander le nombre&lt;br&gt;de lors de caisses de marchandise&lt;br&gt;&lt;b&gt;CrateBatchNumber&lt;/b&gt;" style="rounded=0;whiteSpace=wrap;html=1;fontSize=14;" vertex="1" parent="fu7kZ0SEieJU177dOTh--1">
          
          <mxGeometry x="40" y="481" width="160" height="79" as="geometry" />
          
        </mxCell>
        
        <mxCell id="fu7kZ0SEieJU177dOTh--31" value="Pour chaque lot de caisses, déterminer le nombre de caisses et les placer sur la voie" style="rounded=0;whiteSpace=wrap;html=1;fontSize=14;" vertex="1" parent="fu7kZ0SEieJU177dOTh--1">
          
          <mxGeometry x="40" y="600" width="160" height="79" as="geometry" />
          
        </mxCell>
        
        <mxCell id="fu7kZ0SEieJU177dOTh--36" style="edgeStyle=orthogonalEdgeStyle;rounded=0;orthogonalLoop=1;jettySize=auto;html=1;exitX=0.5;exitY=1;exitDx=0;exitDy=0;entryX=0.5;entryY=0;entryDx=0;entryDy=0;fontSize=14;strokeWidth=2;" edge="1" parent="fu7kZ0SEieJU177dOTh--1" source="fu7kZ0SEieJU177dOTh--33" target="fu7kZ0SEieJU177dOTh--35">
          
          <mxGeometry relative="1" as="geometry" />
          
        </mxCell>
        
        <mxCell id="fu7kZ0SEieJU177dOTh--33" value="Demander le nombre&lt;br&gt;de stations d&#39;énergie&lt;br&gt;&lt;b&gt;EnergyPodNumber&lt;/b&gt;" style="rounded=0;whiteSpace=wrap;html=1;fontSize=14;" vertex="1" parent="fu7kZ0SEieJU177dOTh--1">
          
          <mxGeometry x="40" y="720" width="160" height="79" as="geometry" />
          
        </mxCell>
        
        <mxCell id="fu7kZ0SEieJU177dOTh--38" style="edgeStyle=orthogonalEdgeStyle;rounded=0;orthogonalLoop=1;jettySize=auto;html=1;exitX=0.5;exitY=1;exitDx=0;exitDy=0;entryX=0.5;entryY=0;entryDx=0;entryDy=0;strokeWidth=2;fontSize=14;" edge="1" parent="fu7kZ0SEieJU177dOTh--1" source="fu7kZ0SEieJU177dOTh--35" target="fu7kZ0SEieJU177dOTh--37">
          
          <mxGeometry relative="1" as="geometry" />
          
        </mxCell>
        
        <mxCell id="fu7kZ0SEieJU177dOTh--35" value="Demander les consommations&lt;br&gt;d&#39;énergie&lt;br&gt;&lt;b&gt;EnergyConsumptionBy...&lt;/b&gt;" style="rounded=0;whiteSpace=wrap;html=1;fontSize=14;" vertex="1" parent="fu7kZ0SEieJU177dOTh--1">
          
          <mxGeometry x="40" y="840" width="160" height="79" as="geometry" />
          
        </mxCell>
        
        <mxCell id="fu7kZ0SEieJU177dOTh--37" value="Placer les éléments&lt;br&gt;sur les rails" style="rounded=0;whiteSpace=wrap;html=1;fontSize=14;" vertex="1" parent="fu7kZ0SEieJU177dOTh--1">
          
          <mxGeometry x="40" y="961" width="160" height="79" as="geometry" />
          
        </mxCell>
        
      </root>
      
    </mxGraphModel>
    
  </diagram>
</mxfile>
